<svg width="35" height="35" viewBox="0.00 0.00 35 35" fill="none" xmlns="http://www.w3.org/2000/svg">
<path d="M17.2793 34.5586C14.9004 34.5586 12.668 34.1074 10.582 33.2051C8.49609 32.3145 6.65625 31.0723 5.0625 29.4785C3.48047 27.8965 2.23828 26.0625 1.33594 23.9766C0.445313 21.8906 0 19.6582 0 17.2793C0 14.8887 0.445313 12.6562 1.33594 10.582C2.23828 8.49609 3.48047 6.66211 5.0625 5.08008C6.65625 3.48633 8.49609 2.24414 10.582 1.35352C12.668 0.451172 14.9004 0 17.2793 0C19.6699 0 21.9023 0.451172 23.9766 1.35352C26.0625 2.24414 27.8965 3.48633 29.4785 5.08008C31.0723 6.66211 32.3145 8.49609 33.2051 10.582C34.1074 12.6562 34.5586 14.8887 34.5586 17.2793C34.5586 19.6582 34.1074 21.8906 33.2051 23.9766C32.3145 26.0625 31.0723 27.8965 29.4785 29.4785C27.8965 31.0723 26.0625 32.3145 23.9766 33.2051C21.9023 34.1074 19.6699 34.5586 17.2793 34.5586ZM17.2793 6.99609C16.2363 6.99609 15.2812 7.24805 14.4141 7.75195C13.5586 8.25586 12.8789 8.94141 12.375 9.80859C11.8711 10.6641 11.6191 11.6133 11.6191 12.6562C11.6191 13.8164 11.9297 14.8711 12.5508 15.8203C13.1836 16.7695 14.0391 17.4668 15.1172 17.9121V26.209C15.1172 26.4668 15.2109 26.6953 15.3984 26.8945L16.9102 28.3359C17.0039 28.4414 17.1328 28.5 17.2969 28.5117C17.4727 28.5234 17.6133 28.459 17.7188 28.3184L20.4609 25.6113C20.5898 25.4941 20.6484 25.3477 20.6367 25.1719C20.6367 24.9961 20.5781 24.8438 20.4609 24.7148L18.9141 23.2031L21.0938 21.041C21.2109 20.9355 21.2695 20.7949 21.2695 20.6191C21.2695 20.4434 21.2051 20.291 21.0762 20.1621L19.002 18.0527C20.2676 17.502 21.2402 16.7578 21.9199 15.8203C22.5996 14.8828 22.9395 13.8281 22.9395 12.6562C22.9395 11.6133 22.6875 10.6641 22.1836 9.80859C21.6797 8.95312 21 8.27344 20.1445 7.76953C19.2891 7.25391 18.334 6.99609 17.2793 6.99609ZM17.2793 12.3926C16.834 12.3926 16.459 12.2402 16.1543 11.9355C15.8496 11.6191 15.6973 11.2441 15.6973 10.8105C15.6973 10.3652 15.8496 9.99023 16.1543 9.68555C16.459 9.38086 16.834 9.22852 17.2793 9.22852C17.7246 9.22852 18.0996 9.38086 18.4043 9.68555C18.709 9.99023 18.8613 10.3652 18.8613 10.8105C18.8613 11.2441 18.709 11.6191 18.4043 11.9355C18.0996 12.2402 17.7246 12.3926 17.2793 12.3926Z" fill="black"/>
</svg>
