<svg width="35" height="35" viewBox="0.00 0.00 35 35" fill="none" xmlns="http://www.w3.org/2000/svg">
<path d="M17.2793 34.5586C14.9004 34.5586 12.668 34.1074 10.582 33.2051C8.49609 32.3145 6.65625 31.0723 5.0625 29.4785C3.48047 27.8965 2.23828 26.0625 1.33594 23.9766C0.445313 21.8906 0 19.6582 0 17.2793C0 14.8887 0.445313 12.6562 1.33594 10.582C2.23828 8.49609 3.48047 6.66211 5.0625 5.08008C6.65625 3.48633 8.49609 2.24414 10.582 1.35352C12.668 0.451172 14.9004 0 17.2793 0C19.6699 0 21.9023 0.451172 23.9766 1.35352C26.0625 2.24414 27.8965 3.48633 29.4785 5.08008C31.0723 6.66211 32.3145 8.49609 33.2051 10.582C34.1074 12.6562 34.5586 14.8887 34.5586 17.2793C34.5586 19.6582 34.1074 21.8906 33.2051 23.9766C32.3145 26.0625 31.0723 27.8965 29.4785 29.4785C27.8965 31.0723 26.0625 32.3145 23.9766 33.2051C21.9023 34.1074 19.6699 34.5586 17.2793 34.5586ZM15.4512 25.5059C16.1074 25.5059 16.6348 25.2012 17.0332 24.5918L24.8027 12.5508C24.9316 12.3633 25.0371 12.1699 25.1191 11.9707C25.2012 11.7598 25.2422 11.5547 25.2422 11.3555C25.2422 10.8984 25.0723 10.5293 24.7324 10.248C24.3926 9.9668 24.0059 9.82617 23.5723 9.82617C23.0098 9.82617 22.541 10.1309 22.166 10.7402L15.3984 21.5684L12.252 17.6309C12.041 17.3613 11.8242 17.168 11.6016 17.0508C11.3789 16.9336 11.1328 16.875 10.8633 16.875C10.418 16.875 10.0371 17.0332 9.7207 17.3496C9.41602 17.666 9.26367 18.0469 9.26367 18.4922C9.26367 18.9258 9.42188 19.3359 9.73828 19.7227L13.7637 24.627C14.0098 24.9199 14.2676 25.1426 14.5371 25.2949C14.8066 25.4355 15.1113 25.5059 15.4512 25.5059Z" fill="black"/>
</svg>
