<svg width="39" height="39" viewBox="-4.50 0.00 39 39" fill="none" xmlns="http://www.w3.org/2000/svg">
<path d="M0 32.1855V4.69336C0 3.28711 0.451172 2.15625 1.35352 1.30078C2.25586 0.433594 3.44531 0 4.92188 0H18.2988C19.7285 0 20.8828 0.433594 21.7617 1.30078C22.6523 2.15625 23.0977 3.28711 23.0977 4.69336V19.3887C22.4414 19.248 21.8086 19.1777 21.1992 19.1777C20.9297 19.1777 20.6602 19.1895 20.3906 19.2129C20.1211 19.2363 19.8574 19.2656 19.5996 19.3008L19.582 5.58984C19.582 4.96875 19.4004 4.48828 19.0371 4.14844C18.6855 3.80859 18.1875 3.63867 17.543 3.63867H5.55469C4.91016 3.63867 4.41211 3.80859 4.06055 4.14844C3.70898 4.48828 3.5332 4.96875 3.5332 5.58984V31.2891C3.5332 31.9102 3.70898 32.3906 4.06055 32.7305C4.41211 33.0703 4.91016 33.2402 5.55469 33.2402H10.7402C10.9043 33.9316 11.1387 34.582 11.4434 35.1914C11.748 35.8008 12.1055 36.3633 12.5156 36.8789H4.92188C3.44531 36.8789 2.25586 36.4453 1.35352 35.5781C0.451172 34.7227 0 33.5918 0 32.1855ZM9.43945 7.64648C9.06445 7.64648 8.74805 7.52344 8.49023 7.27734C8.23242 7.01953 8.10352 6.70312 8.10352 6.32812C8.10352 5.95313 8.23242 5.63672 8.49023 5.37891C8.74805 5.12109 9.06445 4.99219 9.43945 4.99219H13.6934C14.0684 4.99219 14.3789 5.12109 14.625 5.37891C14.8828 5.63672 15.0117 5.95313 15.0117 6.32812C15.0117 6.70312 14.8828 7.01953 14.625 7.27734C14.3789 7.52344 14.0684 7.64648 13.6934 7.64648H9.43945ZM21.2168 38.7949C20.0332 38.7949 18.9199 38.5664 17.877 38.1094C16.8457 37.6641 15.9316 37.043 15.1348 36.2461C14.3496 35.4609 13.7285 34.5469 13.2715 33.5039C12.8262 32.4609 12.6035 31.3535 12.6035 30.1816C12.6035 28.5996 12.9902 27.1582 13.7637 25.8574C14.5488 24.5566 15.5918 23.5195 16.8926 22.7461C18.1934 21.9609 19.6348 21.5684 21.2168 21.5684C22.7871 21.5684 24.2227 21.9609 25.5234 22.7461C26.8359 23.5195 27.8789 24.5566 28.6523 25.8574C29.4258 27.1582 29.8125 28.5996 29.8125 30.1816C29.8125 31.3535 29.584 32.4551 29.127 33.4863C28.6816 34.5293 28.0605 35.4492 27.2637 36.2461C26.4785 37.043 25.5645 37.6641 24.5215 38.1094C23.4785 38.5664 22.377 38.7949 21.2168 38.7949ZM20.1621 34.8574C20.6191 34.8574 20.9648 34.7051 21.1992 34.4004L25.998 27.791C26.0801 27.6855 26.1445 27.5684 26.1914 27.4395C26.2383 27.2988 26.2617 27.1758 26.2617 27.0703C26.2617 26.7188 26.1328 26.4258 25.875 26.1914C25.6289 25.957 25.3359 25.8398 24.9961 25.8398C24.5625 25.8398 24.2109 26.0215 23.9414 26.3848L20.0918 31.7461L18.2109 29.6719C18.1055 29.5547 17.9707 29.4609 17.8066 29.3906C17.6543 29.3203 17.4785 29.2852 17.2793 29.2852C16.9512 29.2852 16.6582 29.3965 16.4004 29.6191C16.1543 29.8418 16.0312 30.1406 16.0312 30.5156C16.0312 30.6797 16.0605 30.8379 16.1191 30.9902C16.1895 31.1543 16.2832 31.3008 16.4004 31.4297L19.1777 34.4531C19.2949 34.5938 19.4473 34.6934 19.6348 34.752C19.8223 34.8223 19.998 34.8574 20.1621 34.8574Z" fill="black"/>
</svg>
