<svg width="47" height="47" viewBox="0.00 -5.00 47 47" fill="none" xmlns="http://www.w3.org/2000/svg">
<path d="M12.0059 26.4551C11.4551 26.4551 10.9688 26.2969 10.5469 25.9805C10.1367 25.6523 9.87891 25.2305 9.77344 24.7148L9.4043 23.0801C9.39258 22.8809 9.375 22.7637 9.35156 22.7285C9.32812 22.6816 9.30469 22.6582 9.28125 22.6582L7.45312 23.748C6.99609 24.0176 6.51562 24.123 6.01172 24.0645C5.50781 24.0059 5.06836 23.7832 4.69336 23.3965L2.98828 21.6914C2.60156 21.293 2.37305 20.8418 2.30273 20.3379C2.24414 19.8223 2.36133 19.3418 2.6543 18.8965L3.86719 16.9805C3.86719 17.0391 3.86133 17.0684 3.84961 17.0684C3.83789 17.0684 3.82617 17.0801 3.81445 17.1035L1.74023 16.6113C1.21289 16.4824 0.791016 16.2129 0.474609 15.8027C0.158203 15.3926 0 14.9121 0 14.3613V12.0938C0 11.5547 0.158203 11.0801 0.474609 10.6699C0.791016 10.248 1.21289 9.97266 1.74023 9.84375L3.81445 9.35156C3.82617 9.39844 3.83203 9.42188 3.83203 9.42188C3.84375 9.42188 3.84961 9.41016 3.84961 9.38672C3.86133 9.36328 3.86719 9.35742 3.86719 9.36914C3.86719 9.38086 3.86719 9.42188 3.86719 9.49219L2.6543 7.55859C2.37305 7.11328 2.26172 6.63867 2.32031 6.13477C2.37891 5.61914 2.60156 5.16211 2.98828 4.76367L4.69336 3.05859C5.06836 2.67188 5.50781 2.44922 6.01172 2.39062C6.52734 2.33203 7.01367 2.44336 7.4707 2.72461L9.45703 3.91992C9.38672 3.9082 9.3457 3.90234 9.33398 3.90234C9.33398 3.89062 9.32812 3.87891 9.31641 3.86719L9.77344 1.75781C9.89062 1.23047 10.1543 0.808594 10.5645 0.492188C10.9746 0.164062 11.4551 0 12.0059 0H14.4492C15 0 15.4805 0.164062 15.8906 0.492188C16.3008 0.808594 16.5645 1.23047 16.6816 1.75781L17.1211 3.86719C17.0742 3.87891 17.0508 3.89062 17.0508 3.90234C17.0625 3.90234 17.0742 3.90234 17.0859 3.90234C17.1094 3.90234 17.1152 3.90234 17.1035 3.90234C17.0918 3.90234 17.0508 3.9082 16.9805 3.91992L18.9844 2.72461C19.4414 2.45508 19.9219 2.34961 20.4258 2.4082C20.9414 2.45508 21.3867 2.67188 21.7617 3.05859L23.4668 4.76367C23.8652 5.16211 24.0938 5.61328 24.1523 6.11719C24.2109 6.62109 24.0879 7.10156 23.7832 7.55859L22.5879 9.49219C22.5879 9.42188 22.5879 9.38672 22.5879 9.38672C22.5996 9.38672 22.6113 9.375 22.623 9.35156L24.7148 9.84375C25.2422 9.97266 25.6582 10.248 25.9629 10.6699C26.2793 11.0801 26.4375 11.5547 26.4375 12.0938V14.3613C26.4375 14.9121 26.2793 15.3926 25.9629 15.8027C25.6465 16.2129 25.2305 16.4824 24.7148 16.6113L22.623 17.1035C22.623 17.0684 22.6172 17.0508 22.6055 17.0508C22.6055 17.0508 22.5996 17.0625 22.5879 17.0859C22.5879 17.0977 22.5879 17.0977 22.5879 17.0859C22.5879 17.0742 22.5879 17.0391 22.5879 16.9805L23.7832 18.8965C24.0879 19.3418 24.2109 19.8223 24.1523 20.3379C24.0938 20.8418 23.8652 21.293 23.4668 21.6914L21.7617 23.3965C21.3867 23.7832 20.9414 24.0059 20.4258 24.0645C19.9219 24.123 19.4414 24.0176 18.9844 23.748L17.1738 22.6582C17.1504 22.6816 17.127 22.7227 17.1035 22.7812C17.0801 22.8398 17.0625 22.9395 17.0508 23.0801L16.6816 24.7148C16.5645 25.2305 16.3008 25.6523 15.8906 25.9805C15.4805 26.2969 15 26.4551 14.4492 26.4551H12.0059ZM12.3398 23.8008H14.1152C14.1855 23.8008 14.2266 23.8008 14.2383 23.8008C14.25 23.7891 14.2617 23.7422 14.2734 23.6602L15.0117 20.6191C15.4453 20.5254 15.8496 20.3965 16.2246 20.2324C16.6113 20.0566 16.957 19.8809 17.2617 19.7051L19.916 21.3223C19.9863 21.3574 20.0273 21.375 20.0391 21.375C20.0625 21.375 20.0977 21.3516 20.1445 21.3047L21.3926 20.0918C21.4512 20.0332 21.4746 19.998 21.4629 19.9863C21.4629 19.9746 21.4453 19.9336 21.4102 19.8633L19.793 17.2266C19.8867 16.9688 20.0332 16.6465 20.2324 16.2598C20.4434 15.873 20.5898 15.4453 20.6719 14.9766L23.6953 14.2559C23.7656 14.2441 23.8066 14.2383 23.8184 14.2383C23.8301 14.2266 23.8359 14.1797 23.8359 14.0977V12.375C23.8359 12.293 23.8301 12.252 23.8184 12.252C23.8066 12.2402 23.7656 12.2285 23.6953 12.2168L20.6719 11.4785C20.5898 11.0098 20.4434 10.582 20.2324 10.1953C20.0332 9.80859 19.8867 9.48633 19.793 9.22852L21.4102 6.5918C21.4453 6.52148 21.4629 6.48047 21.4629 6.46875C21.4746 6.45703 21.4512 6.42773 21.3926 6.38086L20.1445 5.16797C20.0977 5.10938 20.0625 5.08594 20.0391 5.09766C20.0273 5.09766 19.9863 5.11523 19.916 5.15039L17.2617 6.75C16.957 6.58594 16.6113 6.42187 16.2246 6.25781C15.8496 6.08203 15.4453 5.94727 15.0117 5.85352L14.2734 2.79492C14.2617 2.72461 14.25 2.68359 14.2383 2.67188C14.2266 2.66016 14.1855 2.6543 14.1152 2.6543H12.3398C12.2695 2.6543 12.2285 2.66016 12.2168 2.67188C12.2168 2.68359 12.2051 2.72461 12.1816 2.79492L11.4434 5.85352C11.0098 5.94727 10.6055 6.08203 10.2305 6.25781C9.85547 6.42187 9.51562 6.58594 9.21094 6.75L6.52148 5.15039C6.46289 5.11523 6.42773 5.09766 6.41602 5.09766C6.4043 5.08594 6.36914 5.10938 6.31055 5.16797L5.0625 6.38086C5.00391 6.42773 4.97461 6.45703 4.97461 6.46875C4.98633 6.48047 5.01562 6.52148 5.0625 6.5918L6.64453 9.22852C6.5625 9.48633 6.42188 9.80859 6.22266 10.1953C6.02344 10.582 5.87695 11.0098 5.7832 11.4785L2.75977 12.2168C2.68945 12.2285 2.64844 12.2402 2.63672 12.252C2.625 12.252 2.61914 12.293 2.61914 12.375V14.0977C2.61914 14.1797 2.625 14.2266 2.63672 14.2383C2.64844 14.2383 2.68945 14.2441 2.75977 14.2559L5.7832 14.9766C5.87695 15.4453 6.02344 15.873 6.22266 16.2598C6.42188 16.6465 6.5625 16.9688 6.64453 17.2266L5.0625 19.8633C5.01562 19.9336 4.98633 19.9746 4.97461 19.9863C4.97461 19.998 5.00391 20.0332 5.0625 20.0918L6.31055 21.3047C6.36914 21.3516 6.4043 21.375 6.41602 21.375C6.42773 21.375 6.46289 21.3574 6.52148 21.3223L9.21094 19.7051C9.51562 19.8809 9.85547 20.0566 10.2305 20.2324C10.6055 20.3965 11.0098 20.5254 11.4434 20.6191L12.1816 23.6602C12.2051 23.7422 12.2168 23.7891 12.2168 23.8008C12.2285 23.8008 12.2695 23.8008 12.3398 23.8008ZM34.1367 36.7559C33.6328 36.7559 33.1875 36.6152 32.8008 36.334C32.4141 36.0527 32.1738 35.6777 32.0801 35.209L31.7812 33.5742C31.8281 33.5625 31.8457 33.5508 31.834 33.5391C31.834 33.5391 31.8223 33.5391 31.7988 33.5391C31.7871 33.5391 31.7871 33.5332 31.7988 33.5215C31.8105 33.5215 31.8516 33.5215 31.9219 33.5215L30.3926 34.4707C29.9824 34.7285 29.543 34.8281 29.0742 34.7695C28.6172 34.7109 28.2129 34.5 27.8613 34.1367L26.4902 32.7656C26.1387 32.4023 25.9336 31.9863 25.875 31.5176C25.8164 31.0605 25.9219 30.627 26.1914 30.2168L27.1582 28.7402C27.1582 28.8105 27.1523 28.8457 27.1406 28.8457C27.1289 28.8457 27.1172 28.8574 27.1055 28.8809L25.4883 28.5469C25.0195 28.4531 24.6445 28.2188 24.3633 27.8438C24.082 27.457 23.9414 27.0117 23.9414 26.5078V24.6445C23.9414 24.1406 24.082 23.7012 24.3633 23.3262C24.6445 22.9395 25.0195 22.6992 25.4883 22.6055L27.1055 22.2715C27.1172 22.3418 27.123 22.3652 27.123 22.3418C27.1348 22.3184 27.1406 22.3008 27.1406 22.2891C27.1523 22.2773 27.1582 22.3184 27.1582 22.4121L26.1914 20.9531C25.9219 20.5547 25.8164 20.1211 25.875 19.6523C25.9336 19.1836 26.1387 18.7676 26.4902 18.4043L27.8613 17.0156C28.2129 16.6523 28.6172 16.4473 29.0742 16.4004C29.543 16.3418 29.9824 16.4414 30.3926 16.6992L31.9219 17.6484C31.8516 17.6367 31.8164 17.625 31.8164 17.6133C31.8164 17.6016 31.8047 17.5957 31.7812 17.5957L32.0801 15.9434C32.1738 15.4863 32.4141 15.1172 32.8008 14.8359C33.1875 14.5547 33.6328 14.4141 34.1367 14.4141H36.0527C36.5684 14.4141 37.0195 14.5547 37.4062 14.8359C37.793 15.1172 38.0273 15.4863 38.1094 15.9434L38.4258 17.5957C38.3672 17.5957 38.3438 17.6016 38.3555 17.6133C38.3672 17.6133 38.3789 17.6191 38.3906 17.6309C38.4023 17.6309 38.4023 17.6367 38.3906 17.6484C38.3906 17.6484 38.3496 17.6484 38.2676 17.6484L39.7969 16.6992C40.207 16.4414 40.6465 16.3418 41.1152 16.4004C41.584 16.4473 41.9883 16.6523 42.3281 17.0156L43.6992 18.4043C44.0508 18.7676 44.2559 19.1836 44.3145 19.6523C44.373 20.1211 44.2676 20.5547 43.998 20.9531L43.0312 22.4121C43.043 22.3535 43.0488 22.3242 43.0488 22.3242C43.0605 22.3125 43.0664 22.2949 43.0664 22.2715L44.7188 22.6055C45.1758 22.6992 45.5449 22.9395 45.8262 23.3262C46.1074 23.7012 46.248 24.1406 46.248 24.6445V26.5078C46.248 27.0117 46.1074 27.457 45.8262 27.8438C45.5449 28.2188 45.1758 28.4531 44.7188 28.5469L43.0664 28.8809C43.0664 28.8223 43.0664 28.8047 43.0664 28.8281C43.0664 28.8398 43.0605 28.8574 43.0488 28.8809C43.0488 28.8926 43.043 28.8457 43.0312 28.7402L43.998 30.2168C44.2676 30.627 44.373 31.0605 44.3145 31.5176C44.2559 31.9863 44.0508 32.4023 43.6992 32.7656L42.3281 34.1367C41.9883 34.5 41.584 34.7109 41.1152 34.7695C40.6465 34.8281 40.207 34.7285 39.7969 34.4707L38.2676 33.5215C38.3379 33.5215 38.373 33.5273 38.373 33.5391C38.3848 33.5508 38.4023 33.5625 38.4258 33.5742L38.1094 35.209C38.0273 35.6777 37.793 36.0527 37.4062 36.334C37.0195 36.6152 36.5684 36.7559 36.0527 36.7559H34.1367ZM34.6113 34.2422H35.5957C35.6895 34.2422 35.7422 34.2305 35.7539 34.207C35.7773 34.1836 35.8008 34.1309 35.8242 34.0488L36.4219 31.6055C37.1367 31.4531 37.8047 31.1719 38.4258 30.7617L40.5879 32.0977C40.6348 32.1328 40.6758 32.1504 40.7109 32.1504C40.7578 32.1504 40.8105 32.1211 40.8691 32.0625L41.6074 31.3242C41.666 31.2656 41.6953 31.2129 41.6953 31.166C41.6953 31.1309 41.6836 31.084 41.6602 31.0254L40.3594 28.9688C40.4062 28.7578 40.5293 28.4707 40.7285 28.1074C40.9277 27.7324 41.0625 27.3281 41.1328 26.8945L43.5762 26.3145C43.6465 26.3027 43.6934 26.2852 43.7168 26.2617C43.7402 26.2266 43.752 26.1738 43.752 26.1035V25.0488C43.752 24.9785 43.7402 24.9316 43.7168 24.9082C43.6934 24.873 43.6465 24.8496 43.5762 24.8379L41.1328 24.2754C41.0625 23.8301 40.9277 23.4258 40.7285 23.0625C40.5293 22.6875 40.4062 22.4004 40.3594 22.2012L41.6602 20.127C41.6836 20.0801 41.6953 20.0391 41.6953 20.0039C41.6953 19.957 41.666 19.9043 41.6074 19.8457L40.8691 19.0898C40.8105 19.043 40.7578 19.0195 40.7109 19.0195C40.6758 19.0195 40.6348 19.0312 40.5879 19.0547L38.4258 20.3906C37.8047 19.9805 37.1367 19.6992 36.4219 19.5469L35.8242 17.1035C35.8008 17.0332 35.7773 16.9863 35.7539 16.9629C35.7422 16.9395 35.6895 16.9277 35.5957 16.9277H34.6113C34.5176 16.9277 34.459 16.9395 34.4355 16.9629C34.4121 16.9863 34.3945 17.0332 34.3828 17.1035L33.75 19.5469C33.0469 19.6992 32.3848 19.9805 31.7637 20.3906L29.6016 19.0547C29.5547 19.0312 29.5078 19.0195 29.4609 19.0195C29.4258 19.0195 29.3789 19.043 29.3203 19.0898L28.582 19.8457C28.5234 19.9043 28.4941 19.957 28.4941 20.0039C28.4941 20.0391 28.5117 20.0801 28.5469 20.127L29.8301 22.2012C29.7832 22.4004 29.6602 22.6875 29.4609 23.0625C29.2617 23.4258 29.127 23.8301 29.0566 24.2754L26.6133 24.8379C26.543 24.8496 26.4961 24.873 26.4727 24.9082C26.4492 24.9316 26.4375 24.9785 26.4375 25.0488V26.1035C26.4375 26.1738 26.4492 26.2266 26.4727 26.2617C26.4961 26.2852 26.543 26.3027 26.6133 26.3145L29.0566 26.8945C29.127 27.3281 29.2617 27.7324 29.4609 28.1074C29.6602 28.4707 29.7832 28.7578 29.8301 28.9688L28.5469 31.0254C28.5117 31.084 28.4941 31.1309 28.4941 31.166C28.4941 31.2129 28.5234 31.2656 28.582 31.3242L29.3203 32.0625C29.3789 32.1211 29.4258 32.1504 29.4609 32.1504C29.5078 32.1504 29.5547 32.1328 29.6016 32.0977L31.7637 30.7617C32.3848 31.1719 33.0469 31.4531 33.75 31.6055L34.3828 34.0488C34.3945 34.1309 34.4121 34.1836 34.4355 34.207C34.459 34.2305 34.5176 34.2422 34.6113 34.2422ZM13.2363 18.2285C12.3105 18.2285 11.4668 18.0059 10.7051 17.5605C9.95508 17.1035 9.35742 16.5 8.91211 15.75C8.4668 14.9883 8.24414 14.1445 8.24414 13.2188C8.24414 12.3164 8.4668 11.4902 8.91211 10.7402C9.35742 9.97852 9.95508 9.375 10.7051 8.92969C11.4668 8.47266 12.3105 8.24414 13.2363 8.24414C14.1504 8.24414 14.9824 8.47266 15.7324 8.92969C16.4824 9.375 17.0801 9.97852 17.5254 10.7402C17.9824 11.4902 18.2109 12.3164 18.2109 13.2188C18.2109 14.1445 17.9824 14.9883 17.5254 15.75C17.0801 16.5 16.4824 17.1035 15.7324 17.5605C14.9824 18.0059 14.1504 18.2285 13.2363 18.2285ZM13.2363 15.5918C13.6582 15.5918 14.0449 15.4863 14.3965 15.2754C14.7598 15.0645 15.0469 14.7832 15.2578 14.4316C15.4805 14.0684 15.5918 13.6641 15.5918 13.2188C15.5918 12.7852 15.4805 12.3926 15.2578 12.041C15.0469 11.6777 14.7598 11.3965 14.3965 11.1973C14.0449 10.9863 13.6582 10.8809 13.2363 10.8809C12.791 10.8809 12.3867 10.9863 12.0234 11.1973C11.6719 11.3965 11.3906 11.6777 11.1797 12.041C10.9688 12.3926 10.8633 12.7852 10.8633 13.2188C10.8633 13.6641 10.9688 14.0684 11.1797 14.4316C11.3906 14.7832 11.6719 15.0645 12.0234 15.2754C12.3867 15.4863 12.791 15.5918 13.2363 15.5918ZM35.0859 29.4785C34.0078 29.4785 33.0879 29.0977 32.3262 28.3359C31.5645 27.5742 31.1836 26.6543 31.1836 25.5762C31.1836 24.5098 31.5645 23.5957 32.3262 22.834C33.0879 22.0605 34.0078 21.6738 35.0859 21.6738C36.1641 21.6738 37.0781 22.0605 37.8281 22.834C38.5898 23.5957 38.9707 24.5098 38.9707 25.5762C38.9707 26.6543 38.5898 27.5742 37.8281 28.3359C37.0781 29.0977 36.1641 29.4785 35.0859 29.4785ZM35.0859 27.1758C35.5195 27.1758 35.8945 27.0176 36.2109 26.7012C36.5273 26.3848 36.6855 26.0098 36.6855 25.5762C36.6855 25.1426 36.5273 24.7676 36.2109 24.4512C35.8945 24.1348 35.5195 23.9766 35.0859 23.9766C34.6523 23.9766 34.2773 24.1348 33.9609 24.4512C33.6445 24.7676 33.4863 25.1426 33.4863 25.5762C33.4863 26.0098 33.6445 26.3848 33.9609 26.7012C34.2773 27.0176 34.6523 27.1758 35.0859 27.1758Z" fill="black"/>
</svg>
